# xmcd
#
# Track frame offsets: 
#        150
#        13868
#        29037
#        50753
#        66746
#        87065
#        98243
#        112082
#        122492
#        150505
#        164394
#        180867
#        211952
#        226449
#        238914
#        253660
#        267738
#        281670
#        294544
#        313056
#
# Disc length: 4358 seconds
#
# Revision: 0
# Processed by: cddbd v1.5.2PL0 Copyright (c) Steve Scherf et al.
# Submitted via: ExactAudioCopy v0.99pb5
#
DISCID=2f110414
DTITLE=Various Artist - Jazz 'Round Midnight [CD1]
DYEAR=2012
DGENRE=Jazz
TTITLE0=Coleman Hawkins - Body And Soul
TTITLE1=Dinah Shore - It Had To Be You
TTITLE2=Cound Basie and His Orchestra - Li'l Darlin'
TTITLE3=Ella Fitzgerald - Every Time We Say Goodbye
TTITLE4=Lem Winchester - With A Song In My Heart
TTITLE5=Julie London - I'm In The Mood For Love
TTITLE6=Stan Getz - Round Midnight
TTITLE7=Chet Baker - My Funny Valentine
TTITLE8=Art Tatum and Ben Webster Quartet - My One And Only Love
TTITLE9=Nat King Cole - Penthouse Serenade [Instrumental]
TTITLE10=Lena Horne - What Are You Doing New Year's Eve
TTITLE11=Miles Davis and John Coltrane - Blue In Green
TTITLE12=Shirley Horn - The Good Life
TTITLE13=Don Byas - April In Paris
TTITLE14=Frank Sinatra - I've Got A Crush On You [From Strike Up The B
TTITLE14=and]
TTITLE15=Charlie Parker - Parker's Mood
TTITLE16=Ella Fitzgerald and Louis Armstrong - Dream A Little Dream Of M
TTITLE16=e
TTITLE17=Tony Bennett - I Left My Heart In San Francisco
TTITLE18=Cannonball Adderley - Dancing In The Dark
TTITLE19=Peggy Lee - I Don't Know Enough About You
EXTD=
EXTT0=
EXTT1=
EXTT2=
EXTT3=
EXTT4=
EXTT5=
EXTT6=
EXTT7=
EXTT8=
EXTT9=
EXTT10=
EXTT11=
EXTT12=
EXTT13=
EXTT14=
EXTT15=
EXTT16=
EXTT17=
EXTT18=
EXTT19=
PLAYORDER=
